<?xml version="1.0" encoding="utf-8"?>
<svg version="1.1" id="Layer_1" xmlns="http://www.w3.org/2000/svg" xmlns:xlink="http://www.w3.org/1999/xlink" x="0px" y="0px"
	 viewBox="0 0 2560 565.563" enable-background="new 0 0 2560 565.563" xml:space="preserve">
<path d="M2557.545,500.52c-0.122-0.409-0.365-1.227-0.487-1.637c-0.209,0.195-0.623,0.585-0.828,0.774
	c-0.468-0.297-0.896-0.584-1.291-0.867c-0.034,0.433-0.102,1.3-0.132,1.734c-0.677-0.01-1.315-0.015-1.919-0.01
	c-0.38-0.677-0.687-1.339-1.013-2.007c-0.024,0.536-0.078,1.607-0.102,2.143c-0.774-0.531-0.77-1.495-0.779-2.299
	c-0.321,0.195-0.964,0.589-1.286,0.784c-0.282,0.55-0.536,1.101-0.765,1.661c-0.112-0.443-0.336-1.33-0.448-1.773
	c-0.297,0.604-0.521,1.223-0.755,1.841c-0.326-0.852-0.877-1.5-1.549-2.041c-0.019,0.424-0.049,1.276-0.063,1.705
	c-1.296,0.024-2.586,0.044-3.843,0.049c-0.068,1.515-0.107,3.034-0.165,4.559c-1.111-0.156-2.245-0.321-3.117-1.023
	c-0.511,0.18-0.984,0.365-1.422,0.56c-0.74-0.161-1.461-0.321-2.148-0.472c-0.141-0.96-0.322-1.914-0.433-2.859
	c-2.538-0.19-5.1-0.205-7.589-0.648c-0.136-0.244-0.409-0.735-0.545-0.979c-0.127,0.351-0.224,0.706-0.297,1.067
	c-3.156,0.015-6.303-0.054-9.439-0.01c-0.01-2.021-2.426-2.737-2.591-4.724c-0.551,0.385-1.072,0.77-1.569,1.154
	c-0.102-0.078-0.307-0.224-0.409-0.302c0-0.614-0.005-1.227,0.049-1.831c-0.468,0.044-1.403,0.132-1.871,0.175
	c-0.209,0.185-0.623,0.55-0.828,0.731c-0.039-0.273-0.122-0.828-0.161-1.101c-0.468,0.195-0.906,0.399-1.315,0.609
	c-0.112-0.287-0.331-0.862-0.438-1.145c-2.216,0.2-4.525,0.77-6.604-0.268c-0.175,0.063-0.521,0.19-0.696,0.253
	c-0.877-1.373-2.299-2.143-3.78-2.65c-0.034-1.018-0.059-2.031-0.034-3.034c-1.714-1.067-3.536-2.192-5.606-1.451
	c-1.654-0.337-9.063-0.709-12.055,0.341c-0.497,0.662-0.755,2.484-1.817,1.51c-0.604-0.921-0.283-2.002-0.146-2.981
	c-0.326-2.391-0.137-4.837,0.102-7.228c-0.156-0.351-0.468-1.057-0.624-1.408c0.205-0.224,0.614-0.662,0.818-0.886
	c-0.248-0.531-0.458-1.057-0.643-1.578c0.175-0.244,0.526-0.726,0.697-0.969c-0.195-0.229-0.584-0.687-0.784-0.921
	c0.263-0.487,0.555-0.974,0.876-1.451c-0.195-0.19-0.584-0.575-0.779-0.765c-0.068-2.591,0.268-5.182,0.024-7.769
	c-1.441,0.263-3.989-1.042-4.427,0.935c-8.343-1.511-5.179-1.87-7.813-1.437c-0.136-0.229-0.409-0.687-0.55-0.916
	c-0.244,0.195-0.736,0.589-0.984,0.784c-0.589-0.01-1.14-0.01-1.661,0c-1.593,2.426-4.856,1.758-7.311,1.836
	c-0.087,1.378-0.132,2.762-0.18,4.145c-1.252-0.049-2.479-0.112-3.687-0.209c-0.584,3.18-0.355,6.449-0.278,9.668
	c-1.072-0.083-2.109-0.151-3.122-0.224c-0.336,4.018-0.312,8.061-0.419,12.094c-1.257-0.049-2.489-0.049-3.697,0.024
	c-0.068,2.713-0.112,5.426-0.205,8.144c-5.208-0.333-3.328-1.714-6.96-0.731c-0.94,0.282-1.865-0.015-2.752-0.146
	c-0.258,0.356-0.478,0.716-0.667,1.086c-0.575,0.302-1.111,0.619-1.622,0.945c-0.137-0.263-0.409-0.789-0.55-1.052
	c-0.346,0.57-0.726,1.101-1.145,1.588c-0.024-0.273-0.063-0.823-0.088-1.101c-0.146,0.029-0.438,0.078-0.584,0.107
	c-1.15-0.088-2.299-0.015-3.4,0.19c-0.019-1.208-0.034-2.411-0.048-3.604c-0.234,0.419-0.443,0.847-0.619,1.281
	c-3.127-1.953-7.077-0.414-10.229-2.279c-0.726,0.492-1.471,0.95-2.119,1.495c-0.326,1.826-0.102,3.702-0.136,5.553
	c-0.06,10.516-0.896,16.273-0.896,16.273c-1.188,0.161-2.343,0.394-3.438,0.784c-0.141-0.18-0.424-0.55-0.565-0.735
	c-0.244-0.039-0.726-0.112-0.969-0.146c-0.39-0.623-0.711-1.261-1.13-1.807c-0.653,0.01-1.271,0.058-1.856,0.132
	c-0.862,1.539-2.591,1.184-4.038,0.994c-0.707-1.101-1.914-1.471-3.064-1.831c-1.041-1.969,0.947-1.938-2.835-3.395
	c0.02-1.369,1.174-3.497-0.497-4.291c-8.082-4.255-0.548,0.041-9.527-3.901c-0.102-0.229-0.297-0.692-0.395-0.921
	c-0.521-0.166-1.013-0.321-1.471-0.472c-0.029-0.74-0.063-1.476-0.02-2.202c-0.17-0.229-0.507-0.682-0.677-0.906
	c0.209-0.214,0.624-0.638,0.828-0.847c-0.65-5.249-0.176-0.871,0.073-11.607c-1.086-0.112-2.138-0.234-3.171-0.365
	c-0.18-0.701-0.322-1.398-0.429-2.085c-1.982-1.115-4.496-2.109-6.497-0.507c-0.248-0.112-0.745-0.331-0.994-0.438
	c-1.895,0.487-3.838,0.487-5.757,0.507c-0.263-0.399-0.497-0.784-0.697-1.169c-0.083,0.283-0.239,0.852-0.322,1.14
	c-0.989,0.015-1.967,0.029-2.898,0.063c-0.486-3.51,0.054-18.341,0.248-22.005c-0.877-0.078-1.763-0.161-2.572-0.224
	c0.015-0.195,0.049-0.584,0.063-0.779c-0.224,0.18-0.677,0.541-0.901,0.721c-0.088-0.779-0.146-1.554-0.17-2.323
	c-1.549-0.219-3.259-0.224-4.388-1.451c-1.374-0.117-2.737-0.015-3.96,0.599c-1.812,0.833-3.828,0.117-5.703,0.492
	c-0.176-0.058-0.531-0.18-0.706-0.244c-1.062,0.263-2.177,0.356-3.224,0.433c-0.053,0.774-0.088,1.549-0.102,2.333
	c-1.937-1.607-1.23-33.468-1.232-34.469c0.268,0,0.794,0.01,1.057,0.01c-1.25-0.589-2.521-0.045-0.034-2.888
	c0.097-0.575,0.249-1.14,0.419-1.705c-0.906-1.12-1.612-2.387-1.865-3.804c0.487-0.136,1.003-0.263,1.549-0.385
	c-0.833-0.424-1.169-1.227-1.427-2.031c0.779-0.487,1.447-1.135,1.89-1.973c-2.684-0.205-5.333-0.599-7.988-0.906
	c0.312-0.697,0.638-1.388,1.013-2.065c-0.083-0.185-0.253-0.55-0.341-0.735c0.599-0.073,1.227-0.146,1.88-0.209
	c0.015-0.273,0.039-0.828,0.054-1.101c-1.427-0.404-2.888-0.696-4.345-0.726c-0.2-0.117-0.609-0.356-0.813-0.472
	c-0.133-11.764,0.207-13.569,1.705-15.114c-0.186-0.594-0.351-1.179-0.478-1.758c0.515-1,16.396-28.554,18.065-30.183
	c-0.57-0.434-1.033-1.164-1.802-0.989c-2.716,5.251-6.609,10.231-8.275,14.441c-0.385,0.395-0.75,0.794-1.072,1.198
	c-0.01,0.433,0.039,0.882,0.097,1.33c-1.75,1.169-7.842,11.818-8.928,14.003c-0.346-0.107-1.047-0.326-1.398-0.433
	c0.02-0.565,0.102-1.12,0.185-1.675c-1.466-1.232-1.9-3.122-2.513-4.832c-0.619,0.19-1.203,0.385-1.759,0.589
	c0.666,2.161,0.28,0.173,1.783,5.494c-0.818,0.01-1.607,0.024-2.372,0.044c-0.078,1.276,0,2.552,0.234,3.814
	c1.164,0.297,2.367,0.521,3.497,1.018c0.803,1.471,0.497,3.234,0.56,4.851c0.274,9.203-0.406,7.385-2.041,8.475
	c-2.849-0.721-5.835,0.487-8.733-0.088c0.046-0.35,0.069-0.7,0.083-1.05c-0.392,0.074-0.806,0.116-1.235,0.136
	c0.012,0.283,0.034,0.567,0.061,0.85c-2.767-0.716-5.645,0.015-8.378-0.838c-1.924,0.268-3.843,0.964-5.796,0.555
	c-0.38-0.526-0.682-1.076-0.896-1.651c-6.476,2.967,1.296,4.939-1.457,7.345c0.161,2.167,1.013,4.617-0.214,6.6
	c0.316,0.36,0.667,0.726,1.047,1.101c-0.394,0.623-0.726,1.257-1.067,1.89c0.288,0.799,0.531,1.593,0.857,2.406
	c-0.263-0.156-0.784-0.463-1.047-0.619c0.02,0.263,0.048,0.789,0.068,1.052c0.249,0.17,0.75,0.516,0.999,0.687
	c-0.307,0.541-0.589,1.081-0.847,1.627c0.17,0.205,0.516,0.609,0.692,0.813c-0.01,0.336-0.029,1.013-0.034,1.354
	c-0.307,0.073-0.921,0.224-1.227,0.297c0.01,3.098,0,6.195-0.005,9.298c-1.364-0.01-2.698-0.01-4.028-0.019
	c-0.02,1.004-0.222,16.913-0.935,18.513c-0.614,0.01-1.198,0.024-1.748,0.044c-0.307,0.433-0.584,0.877-0.833,1.325
	c-1.471,0.092-2.927,0.112-4.369,0.088c-0.16-1.364-0.253-2.723-0.243-4.082c-2.343-1.408-5.202-1.534-7.837-1.875
	c0.015-0.804,0.078-1.598,0.161-2.382c-0.248-0.136-0.75-0.409-0.998-0.546c0.122-2.314-1.646-3.984-2.372-6.035
	c-7.198-0.308-4.369,0.647-7.706,0.93c-3.589,0.268-7.135-0.969-10.706-0.399c-2.099,0.346-4.208-0.019-6.278-0.219
	c-0.657,3.042-1.719,1.533-1.822,6.069c-0.623,0.034-1.208,0.078-1.758,0.132c-0.886,1.593-2.888,0.56-4.247,1.31
	c-1.159,0.146-2.82,1.588-3.556,0.18c-1.929,0.935-4.159,0.234-6.122-0.175c-10.183-0.072-8.68,0.701-11.734,1.588
	c-0.02,1.291-0.02,2.586-0.01,3.882c-1.149,0.068-2.309,0.058-3.312,0.614c0.799,0.229,1.705,0.463,2.567,0.682
	c0.034,4.004-0.672,7.964-0.57,11.977c-0.994,1.544-0.677,3.424-0.667,5.163c-0.468-0.19-0.906-0.37-1.325-0.545
	c-0.463,1.982-0.531,4.359-2.323,5.679c-0.058-0.477-0.18-1.437-0.244-1.919c-0.477,0.672-0.945,1.339-1.5,1.924
	c-0.18-0.687-0.336-1.374-0.458-2.051c-0.112,0.385-0.331,1.159-0.443,1.544c-0.872,0.044-1.714-0.054-2.503,0.209
	c-1.179,1.048-0.026,10.383-0.2,15.567c-3.667,0.248-7.335-0.399-10.964-0.779c-1.831,0.502-3.692-0.068-5.533,0.024
	c-0.093-2.265,0.448-4.617-0.073-6.819c-1.203-1.047-3.039-0.818-4.51-1.062c-0.146-1.047-0.263-2.09-0.38-3.127
	c-2.197-1.203-4.004-2.971-6.093-4.325c-0.146,0.239-0.443,0.721-0.594,0.96c-8.787-1.507-13.586,2.029-17.407,2.547
	c-0.014-0.37-0.034-1.115-0.044-1.486c-0.141,0.297-0.429,0.891-0.575,1.188c-0.243-0.253-0.735-0.765-0.984-1.018
	c0.156,1.369,0.317,2.747,0.38,4.135c-1.359,0.049-2.684,0.18-3.984,0.438c0.551,1.476-0.039,3.161,0.745,4.544
	c-0.618,0.721-0.852,1.568-0.224,2.391c-0.896,1.953,0.307,4.116-0.55,6.064c0.132,0.161,0.399,0.492,0.531,0.653
	c-0.57,0.828-0.526,1.749-0.117,2.635c-0.132,0.239-0.4,0.716-0.531,0.955c0.156,0.565,0.341,1.135,0.545,1.714
	c-0.619-0.385-1.154-0.75-1.714-1.125c-0.346,0.029-1.042,0.088-1.393,0.117c-0.166-0.112-0.497-0.336-0.662-0.448
	c-0.745,0.789-1.661,1.023-2.64,0.57c-2.669,0.906-5.353-0.268-8.022,0.078c0.234-2.801,0.18-5.611,0.209-8.416
	c-1.783-0.224-3.565-0.365-5.338-0.399c-0.127-1.578-0.243-3.156-0.322-4.729c-1.88-0.049-3.755-0.17-5.519-0.794
	c-1.997,0.156-4.174,0.706-5.981-0.404c-0.268,0.132-0.804,0.39-1.072,0.516c-0.521-0.068-1.018-0.127-1.486-0.18
	c0.589-3.293-0.161-6.619,0.239-9.921c-0.107-1.831,0.604-4.072-0.804-5.548c-0.341,0.097-1.028,0.297-1.369,0.394
	c-0.74-1.909,0.034-4.271-1.617-5.777c-0.692-0.073-1.296-0.136-1.929-0.209c0.107-3.668,0.053-7.34,0.199-11.003
	c-1.281-0.857-2.83-0.813-4.271-0.823c-0.351-6.605,0.219-13.195,0.063-19.799c-3.184-1.743-2.39-1.167-2.134-3.585
	c-0.745-0.843-1.339-1.802-1.593-2.888c-0.024,0.268-0.068,0.809-0.093,1.081c-1.705-0.054-3.385-0.2-5.041-0.438
	c-1.042-2.008,0.289-3.694-11.733-2.567c-0.049-0.292-0.141-0.872-0.19-1.164c-0.263,0.37-0.507,0.75-0.726,1.135
	c-0.969,0.019-1.909,0.044-2.83,0.078c0,1.023,0.02,2.046,0.083,3.078c-1.403,0.034-2.796,0.078-4.164,0.151
	c-0.638-0.2-1.257-0.39-1.851-0.57c-0.204,0.185-0.623,0.56-0.833,0.745c-0.828-0.044-1.622-0.078-2.387-0.127
	c-0.565-0.901-1.534-0.229-2.279-0.122c-0.726,0.244-1.447,0.058-2.124-0.049c-1.12,0.248-2.241,0.434-3.346,0.55
	c-0.107,6.2-0.463,12.401-0.351,18.606c-0.093-0.214-0.283-0.648-0.375-0.862c-1.179,0.068-2.518-0.317-3.488,0.463
	c0.02,2.114,0.229,4.223,0.107,6.342c-1.111,0.375-2.201,0.76-3.283,1.13c-0.107,3.619-0.054,7.243-0.078,10.871
	c-1.822-0.058-3.634-0.078-5.431-0.063c-0.044,5.499-0.132,10.998-0.224,16.497c-0.55-0.745-0.935-1.588-1.222-2.44
	c-1.101-0.054-2.182-0.117-3.239-0.185c-0.029-0.39-0.088-1.169-0.117-1.559c0.531-0.127,1.086-0.253,1.666-0.375
	c-0.555-0.171-1.091-0.326-1.603-0.482c-0.727-35.904,0.088-54.277,0.19-66.27c-10.457-1.545-12.345,0.101-14.602-2.055
	c-0.648,0.151-1.305,0.01-1.753-0.438l-0.112,0.765c-0.234-0.18-0.701-0.536-0.935-0.716c-2.284,0.565-4.661,0.828-6.955,0.248
	c-0.288,0.015-0.867,0.054-1.154,0.068c-0.088-0.365-0.263-1.096-0.356-1.466c-0.078,0.37-0.234,1.106-0.312,1.471
	c-3.088,0.253-6.196,0.058-9.264,0.399c0.175-0.302,0.526-0.901,0.701-1.203c-1.661-0.994-3.551-0.74-5.353-0.555
	c-0.131-0.248-0.399-0.735-0.536-0.984c-0.185,0.375-0.351,0.75-0.492,1.135c-1.256-0.244-2.635-0.341-3.507-1.369
	c-0.088,0.331-0.268,0.994-0.355,1.325c-0.619,0.312-1.208,0.628-1.773,0.95c0.351-8.641,0.448-17.296,0.477-25.946
	c-1.369,0.01-2.606-0.438-3.258-1.68c-3.994-0.859-13.567-1.484-14.977-0.872c-0.126-1.115-0.205-2.221-0.312-3.327
	c-0.229,0.843-0.409,1.695-0.57,2.547c-23.746,0.327-21.083,0.676-21.811,2.007c-3.375,0.289-2.612-1.1-2.655,8.777
	c-1.671,0.088-3.648-0.541-4.934,0.828c0.867,0.068,1.758,0.127,2.669,0.18c0.536,2.664-0.789,5.124-0.994,7.73
	c0.147,1.367,0.342,9.336-0.361,12.328c0.175,0.214,0.536,0.643,0.716,0.857c-1.169,5.175,0.448,2.927-0.658,6.78
	c0.186,0.375-0.035,40.939-0.409,41.912c0.185,1.081,0.355,2.167,0.472,3.268c-2.406,0.219-4.842,0.253-7.199-0.239
	c0.357-4.778,0.234-1.403-0.249-14.251c-0.029,4.705-0.351,9.405-0.278,14.11c-1.339-0.195-2.674-0.395-3.989-0.58
	c-0.219-0.779-0.424-1.554-0.624-2.323c-0.55-0.151-1.081-0.297-1.583-0.438c0-0.001-1.13-24.016-1.13-24.017
	c-0.195,0.623-0.365,1.257-0.507,1.895c0.205,0.779,0.01,1.476-0.677,1.963c0.166,0.17,0.497,0.511,0.658,0.682
	c-0.648,6.731-1.155,13.487-2.06,20.194c-0.838-0.346-1.573-0.438-2.236,0.166c-0.546-0.209-1.067-0.409-1.563-0.604
	c0.131-0.205,0.39-0.604,0.516-0.809h-0.92c0.063,0.268,0.195,0.799,0.258,1.067c-2.148,0.692-3.4-1.364-5.109-2.158
	c0.682-2.728,0.794-5.669-0.132-8.353c-3.827-2.091-1.895-1.659-3.195-4.739c-2.147-3.939-2.423-6.861-4.695-11.879
	c-2.255-0.141-4.505-0.093-6.731,0.141c-0.141-0.526-0.044-1.247-0.706-1.373c-0.02,0.468-0.059,1.403-0.078,1.87
	c-3.509-1.175-8.199,0.644-17.261-0.375c-0.093-0.263-0.282-0.789-0.375-1.052c-0.039,0.248-0.117,0.74-0.156,0.989
	c-3.19-0.326-6.39-0.248-9.576-0.122c-0.088,0.282-0.263,0.843-0.351,1.125c-1.744,0-3.468,0.068-5.173,0.253
	c-1.003,3.478-2.513,6.78-3.507,10.262c-0.282,0.024-0.848,0.078-1.13,0.107c-0.034,1.086-0.044,2.177-0.024,3.278
	c-0.697-0.239-1.369-0.536-2.085-0.375c0.521,0.497,0.95,1.081,1.276,1.758c-0.36,0.019-1.081,0.058-1.447,0.083
	c-0.414,0.385-0.799,0.779-1.164,1.174c0,2.596-0.034,5.197-0.01,7.793c-0.794,0.375-1.573,0.76-2.328,1.149
	c0.093,2.645-0.087,5.294-0.083,7.944c-0.736,0.166-1.437,0.297-2.08,0.614c-0.297,1.529-0.132,3.098-0.122,4.647
	c-1.685,0.093-3.2-0.511-4.525-1.466c-0.229,0.2-0.677,0.604-0.901,0.804c-1.115-0.429-1.052-1.719-1.252-2.679
	c-1.951-0.931-1.231,1.181-1.164-17.812c0-0.001,0.326-38.536,0.326-38.536c-1.486-0.37-2.981-0.658-4.481-0.789
	c-0.224-0.55-0.424-1.096-0.599-1.637c-1.135,0.034-2.24,0.141-3.312,0.404c0.01-0.326,0.039-0.984,0.049-1.31
	c-0.365,0-1.105,0.005-1.471,0.01c-0.209-1.768-0.054-3.575-0.478-5.304c-0.828-0.313-14.686-0.309-15.571-0.312
	c-0.399,0.419-0.774,0.838-1.13,1.266c0.073,1.714-0.073,3.517-1.228,4.885c-0.063,0.58-0.102,1.164-0.112,1.758
	c-4.169,0.205-8.338,0.258-12.498,0.541c-1.885,2.559-1.897-3.85-1.846,45.394c-0.93-0.034-1.822-0.054-2.703-0.078
	c-0.073-2.732-0.049-5.46,0.015-8.188l-0.468,0.015c0.107,2.664,0.117,5.338,0.078,8.007c-3.215-0.112-6.419-0.326-9.605-0.643
	c-1.554,2.562-3.497,4.856-5.192,7.321c-4.067,1.254-13.673-0.109-18.348,0.282c-0.039,3.234-0.068,6.468-0.054,9.707
	c-2.172,0.511-4.33,1.067-6.483,1.637c0-0.731,0.024-1.451,0.068-2.163c-2.177-0.083-4.34-0.073-6.498-0.166
	c0.122-1.914,0.249-3.833,0.209-5.752c-3.063,0.029-6.112-0.312-9.166-0.258c0.482-1.12,0.463-2.318,0.034-3.444
	c0.862-3.171-0.175-6.473,0.36-9.678c0.356-1.861,0.141-3.741-0.224-5.572c0.351-1.398,0.356-2.84-0.107-4.203
	c0.657-3.423,0.878-17.174,0.088-20.164c0.745-0.322,1.51-0.638,2.294-0.945c1.351-13.497,1.762-10.016-16.136-11.899
	c-1.924-0.127-0.249-3.185-1.992-3.604c-0.954-0.291-15.668,0.643-18.888,0.823c-0.161,0.872-0.302,1.753-0.404,2.64
	c-1.001,0.112-22.024,1.686-22.887,1.067c-0.132-0.901-0.205-1.802-0.385-2.679c-0.375,0.974-0.507,2.016-0.565,3.059
	c-0.399,0.073-1.198,0.224-1.598,0.302c-0.005-0.589-0.024-1.768-0.034-2.357c-0.297,0.735-0.511,1.49-0.76,2.236
	c-2.737-0.365-5.475,0.088-8.202,0.151c-0.351,3.156-0.39,6.337-0.17,9.503c0,0-7.178-0.371-29.068,1.115
	c-0.039-0.322-0.122-0.974-0.161-1.3c-0.438,1.193,0.107,3.458-1.705,3.419c-0.765-1.749-1.344-3.565-1.822-5.401
	c-3.385,2.788-1.478,0.828-0.808,9.517c-0.229,0.312-0.429,0.628-0.604,0.95c-1.106-0.507-2.216-0.239-3.254,0.229
	c0.39,0.093,1.169,0.273,1.564,0.36c-1.096,0.487-2.211,0.901-3.307,1.335c1.656,1.169,3.609-0.302,5.372,0.658
	c-3.312,0.804-6.799,0.799-10.17,1.262c-0.482-0.609-0.95-1.213-1.383-1.817c1.15-0.862,0.872-2.143,0.429-3.302
	c-0.531-0.073-1.047-0.146-1.539-0.214c0.205-0.75,0.107-1.826,1.101-1.997c0.857-0.399,2.552-1.008,1.7-2.245
	c-1.125-0.74-2.81-0.818-2.903-2.489c1.028-0.721,2.698-1.432,2.089-3.01c-0.789-0.774-1.743-1.393-2.221-2.411
	c1.013-0.375,2.104-0.633,3.083-1.154c0.093-0.735,0.122-1.476,0.195-2.206c-0.697-0.054-1.374-0.107-2.031-0.151
	c-0.355-0.609-0.701-1.208-1.023-1.802c0.75-0.55,1.52-1.086,2.313-1.612c-0.248-1.193-0.429-2.513-1.68-3.034
	c-0.029-0.326-0.083-0.969-0.107-1.291c0.813-0.205,1.637-0.399,2.489-0.584c-0.058-0.901,0.093-1.851-0.282-2.684
	c-0.794-0.448-1.734-0.487-2.567-0.697c0.166-1.091,0.999-1.7,1.948-2.124c0.02-0.828,0.034-1.651,0.039-2.469
	c-0.794-0.487-2.294-0.896-1.783-2.128c-0.044-1.471,1.641-0.969,2.606-1.159c0.029-0.96,0.054-1.909,0.093-2.859
	c-0.726-0.136-1.442-0.102-2.089-0.37c-0.609-0.804-0.346-1.914-0.458-2.844c0.58-0.278,1.198-0.545,1.817-0.813
	c0.005-1.018,0.131-2.046-0.044-3.044c-0.662-0.575-1.529-0.789-2.279-1.14c-0.234,0.419-0.448,0.843-0.643,1.271
	c-1.958-2.121-4.631-2.384-2.518-5.075c0.083-0.258,0.244-0.774,0.326-1.033c-0.419-0.351-0.818-0.692-1.193-1.033
	c-0.039-0.599-0.053-1.193-0.039-1.778c1.037-0.239,0.979-1.188,1.003-2.021c-0.458-0.482-0.823-1.003-1.091-1.568
	c0.273-0.74,0.799-1.349,1.271-1.982c-0.458-0.838-0.906-1.661-1.373-2.465c0.034-0.287,0.097-0.862,0.126-1.149
	c0.273-0.093,0.813-0.282,1.086-0.375c-0.015-0.492-0.005-0.974,0.024-1.451c-0.541-0.643-1.471-1.227-1.271-2.182
	c0.282-0.209,0.852-0.628,1.14-0.838c0.02-0.589,0.054-1.174,0.117-1.753c-0.292-0.19-0.867-0.57-1.154-0.76
	c0.063-0.365,0.185-1.091,0.248-1.456c0.355-0.404,0.706-0.823,1.067-1.247c-0.385-1.149-1.057-2.177-1.374-3.336
	c0.395-0.107,1.188-0.317,1.588-0.424c-1.162-4.293-2.577-2.691-0.224-4.715c-0.01-0.565,0-1.125,0.029-1.68
	c-0.302-0.117-0.901-0.346-1.203-0.458c-0.044-0.706-0.063-1.403-0.063-2.094c0.355,0.039,1.067,0.117,1.422,0.156
	c-0.141-1.461-0.945-2.693-1.642-3.926c1.349-0.331,1.637-1.495,1.539-2.732c-0.458-0.244-0.896-0.487-1.31-0.731
	c-0.054-0.594-0.088-1.188-0.102-1.773c0.341,0.015,1.018,0.054,1.359,0.073c0.015-4.291,0.117-8.577,0.258-12.863
	c-3.049-0.419-6.239-0.205-9.108-1.461c0.302-0.083,0.901-0.244,1.203-0.321c0.02-0.409,0.063-1.227,0.087-1.637
	c-3.74-0.112-7.486,0.268-11.202-0.156c-1.524-0.234-2.596,1.432-4.125,1.145c-3.638-0.336-7.257-0.906-10.905-1.037
	c-0.005-0.17-0.015-0.516-0.015-0.687c-0.132,0.141-0.399,0.419-0.531,0.56c-1.261-0.229-2.508-0.409-3.75-0.565
	c-0.005,0.511-0.015,1.525-0.02,2.036c-0.458-0.321-0.867-0.672-1.228-1.052c-0.258,0.297-0.477,0.604-0.667,0.925
	c-0.813-0.273-1.607-0.555-2.382-0.838c-0.624,0.346-1.228,0.697-1.817,1.047c-0.01-0.677,0-1.349,0.034-2.016
	c-2.323-0.448-4.588,0.253-6.877,0.419c0.372-48.803,1.299-78.204,0.326-80.526c-2.879-0.458-5.879-1.081-8.714-0.117
	c-5.821-1.438-25.638-2.841-28.469-4.71c-3.112-0.648-6.4-1.242-9.517-0.375c-1,0.023-10.042-0.633-12.187-0.161
	c-1.32,0.341-2.649,0.044-3.936-0.18c-1.812-0.433-3.55,0.75-5.338,0.273c-1.958-0.448-3.936-0.156-5.845,0.258
	c-3.163-0.864-13.916-0.392-18.791,0.808c-0.217,8.191,0.059,103.784-0.575,107.115c-3.746,0.054-7.506-0.356-11.227,0.136
	c-0.195,13.331,0.024,26.662-0.088,39.993c-0.434,0.536-0.853,1.086-1.203,1.671c-0.219,0.078-0.662,0.234-0.882,0.312
	c0.25,3.824,0.167,33.89,0.073,37.484c-2.392-0.987-0.939-4.416-1.52-14.841c-0.511-0.097-1.008-0.185-1.481-0.268
	c-0.278-1.154-0.833-2.177-1.646-3.02c-0.2-3.103,0.468-6.351-0.721-9.318c-0.322-0.088-0.964-0.268-1.281-0.36
	c-0.277,0.166-0.833,0.502-1.11,0.667c-2.835-0.721-5.455-2.036-8.227-2.917c-1.646-0.765-4.003-1.091-4.262-3.258
	c-0.633-0.219-1.291-0.711-1.856-0.156c-0.088,0.375-0.263,1.125-0.351,1.5c-4.008,2.07-8.265,3.609-12.439,5.299
	c-0.755-0.234-2.041-1.169-2.455-0.024c-0.833,2.883-0.141,5.962-0.618,8.908c-1.228,0.667-1.378,2.002-1.296,3.258
	c-0.419,0.005-1.261,0.015-1.68,0.02c-0.287,4.817-0.049,9.649-0.156,14.475c-3.079,1.07-2.062-3.882-2.25,18.177
	c-0.75,0.078-1.486,0.166-2.197,0.258c1.383-2.932-0.468-5.986-0.103-9.025c-0.287-2.518,0.604-5.358-0.687-7.642
	c-2.693,0.097-5.392,0.385-8.041-0.317c-0.071-2.855,0.494-146.396-0.331-148.101c-2.348-0.964-4.988-0.565-7.452-0.901
	c-1.072-20.602,1.418-27.532-1.598-28.985c-3.332-0.468-6.858-0.287-9.936-1.826c-3.302-0.346-6.663-0.127-9.887-0.974
	c-0.312-0.989-0.458-2.012-0.667-3.015c-0.472-0.234-0.925-0.463-1.359-0.687c0.058-0.36,0.175-1.076,0.234-1.432
	c-1.792-0.877-2.601-2.796-4.101-4.008c-0.331-0.872,0.653-1.354,1.101-1.929c-0.331-0.146-0.989-0.438-1.32-0.584
	c0.355-0.521,0.716-1.037,1.105-1.549c-0.326-0.438-0.682-0.862-0.896-1.339c0.156-0.56,0.555-1.008,0.872-1.5
	c-0.896-0.555-0.818-1.602-0.891-2.503c0.307,0.078,0.911,0.229,1.213,0.307c-0.453-0.585-0.901-1.164-1.33-1.744
	c0.326-0.511,0.653-1.023,1.013-1.524c-1.281-1.164-0.989-2.913-0.638-4.418c-0.826-1.362,0.782-6.477-0.336-8.645
	c0.453-1.344,0.867-2.757-0.336-3.823c0.799-0.166,1.447,0.219,2.041,0.765c-0.482-1.977-1.524-3.892-1.524-5.937
	c0.57-1.447,0.969-2.956,0.414-4.476c0.273-0.555,0.55-1.106,0.867-1.651c-0.317-0.497-0.614-0.994-0.891-1.49
	c0.901-0.994,1.037-2.474-0.195-3.288c0.239-0.107,0.721-0.317,0.959-0.419c0.024-0.886-0.146-1.749-0.614-2.503
	c0.146-0.809,1.247-1.865,0.078-2.401c0.17-0.029,0.507-0.093,0.672-0.122c-0.292-0.17-0.872-0.511-1.164-0.687
	c0.263-0.151,0.784-0.453,1.047-0.604c-0.058-0.672-0.097-1.335-0.146-1.997c-0.497-0.619-0.964-1.252-1.393-1.89
	c0.37-0.628,0.779-1.242,1.115-1.9c-0.667-0.959-1.822-1.359-2.757-1.948c-0.506,0.667-0.989,1.339-1.471,2.007
	c1.291,1.622,0.078,3.492,0.151,5.299c-0.058,1.5,0.268,2.981,0.789,4.388c-0.419-0.424-0.818-0.843-1.203-1.261
	c-0.141,0.95-0.243,1.9-0.36,2.849c0.84,5.616-1.019,15.8,0.365,18.012c-0.141,0.185-0.428,0.56-0.575,0.745
	c-0.102,3.59,0.838,7.355-0.794,10.735c0.57,1.763,0.643,3.643,0.093,5.421c0.127,0.268,0.385,0.804,0.511,1.067
	c-0.248,0.058-0.755,0.18-1.008,0.239c0.273,0.019,0.818,0.063,1.091,0.083c-1.101,3.166-0.404,6.517-0.594,9.78
	c-0.706-0.244-1.427-0.487-2.099-0.716c-0.302,1.461-0.034,2.961-0.278,4.432c-0.56-0.823-0.901-1.822-1.646-2.479
	c-1.378-0.648-2.942-0.404-4.389-0.453c-0.053,1.028-0.078,2.075-0.351,3.078c-0.219-1.028-0.321-2.07-0.38-3.107
	c-0.502,0.19-0.989,0.385-1.456,0.589c0.039-0.594,0.044-1.184,0.024-1.768c-1.958-0.969-4.393-0.093-5.182,1.963
	c-0.331-0.726-0.633-1.447-0.926-2.172c0.497-1.963-1.695-3.648-0.808-5.621c0.823-2.26,0-4.642-0.117-6.945
	c0.633-0.911,0.433-1.885-0.097-2.781c0.419-1.149,0.17-2.343,0.005-3.512c-0.356-0.75,0.594-0.682,1.076-0.896
	c-0.195-1.861-0.555-3.702-1.159-5.47c0.409-0.385,1.155-0.56,1.349-1.159c-0.102-1.033-1.588-1.919-0.619-2.956
	c0.589,0.487,1.227,0.955,1.875,1.408c-0.365-0.818-0.784-1.602-1.437-2.206c-1.637-3.463-1.554-7.413-1.072-11.12
	c-1.475-4.914,0.47-14.01-1.495-18.25c-2.899,1.369,0.311,12.555-2.377,18.723c0.468,0.852,0.784,1.758-0.282,2.309
	c0.029,1.378,0.02,2.757-0.058,4.135c0.219,0.151,0.657,0.463,0.882,0.619c-0.166,0.458-0.312,0.916-0.443,1.378
	c0.112,0.219,0.331,0.653,0.438,0.872c-0.302,0.531-0.589,1.062-0.857,1.593c0.292,0.594,0.604,1.184,0.93,1.778
	c-0.433,0.643-0.847,1.281-1.261,1.919c0.234-0.068,0.711-0.205,0.945-0.278c0.034,0.482,0.107,1.451,0.141,1.934
	c-0.409,0.424-0.77,0.852-1.14,1.281c0.916,0.365,1.111,1.3,1.369,2.167c-0.57,0.346-1.081,0.701-1.617,1.057
	c0.399,0.156,1.193,0.463,1.593,0.619c-0.341,1.023-0.672,2.046-1.042,3.059c0.322,0.292,0.662,0.589,1.023,0.891
	c-1.451,1.31-0.117,3.151-0.029,4.749c-0.351,0.005-1.057,0.015-1.412,0.02c-0.166,0.453-0.273,0.916-0.404,1.373
	c1.159-1.247,1.427,0.633,0.984,1.447c-0.545-0.005-1.072-0.005-1.583,0c-0.336-3.672-0.078-7.369-0.429-11.042
	c0.249-0.01,0.75-0.024,0.999-0.034c-0.716-0.244-1.344-0.584-1.885-1.072c0.332,2.835,0.257,17.668-0.288,19.887
	c0.151,0.667,0.317,1.339,0.502,2.012c-0.331,0.078-0.989,0.244-1.315,0.326c-0.02,1.076-0.01,2.163,0.024,3.244
	c-0.726-0.409-1.461-0.779-2.197-1.101c-0.317,0.541-0.619,1.081-0.906,1.627c-0.107,0.989,0.643,2.684-0.799,2.898
	c-0.506-0.896-0.93-1.822-1.451-2.698c-0.098,1.125-0.132,2.26-0.122,3.39c-0.584,0.029-1.15,0.058-1.695,0.093
	c-0.326-1.052-0.346-2.416-1.52-2.898c0.136,0.312,0.409,0.94,0.545,1.252c-0.575,1.033-1.184,2.089-2.236,2.689
	c-0.058,0.516-0.093,1.037-0.107,1.564c-5.221,0.789-10.452,1.549-15.61,2.684c0,0.001,0.229,25.152,0.229,25.152
	c-1.145,0.166-2.265,0.346-3.38,0.536c0.029,7.52-0.083,15.045,0.112,22.566c-3.278,0.107-6.541-0.351-9.809-0.278
	c-2.289-0.034-4.364,1.403-6.663,0.984c-0.258,0.122-0.492,0.253-0.706,0.385c-1.797,0.248-3.565,0.589-5.348,0.823
	c-0.185,0.731-0.36,1.471-0.584,2.192c-1.33,0.58-2.606-0.472-3.823-0.867c-2.99,0.984-6.176,0.122-9.215,0.779
	c-3.19,0.2-6.239,1.218-9.41,1.52c-0.063,0.706-0.132,1.408-0.161,2.124c-2.007-0.336-4.038-0.511-6.059-0.507
	c0.472-0.438,1.032-0.857,1.544-1.286c-4.912,0.614-4.102-1.125-6.195,0.833c-3.122,0.097-6.21-0.614-9.313-0.307
	c0.058-0.433,0.176-1.31,0.234-1.749c-1.802,0.433-3.536,1.125-5.353,1.471c0.273-0.599,0.594-1.188,0.901-1.778
	c-0.813,0.136-1.632,0.278-2.416,0.424c0.024,0.317,0.068,0.94,0.093,1.257c-0.448-0.161-0.882-0.317-1.296-0.468
	c0.112-0.37,0.341-1.11,0.453-1.481c-1.369,0.472-2.718,0.969-4.116,1.281c0.02-0.375,0.054-1.125,0.073-1.505
	c-0.234,0.068-0.691,0.2-0.926,0.263c-0.039-0.356-0.122-1.062-0.161-1.417c-0.058,0.911-0.253,1.807-0.653,2.63
	c-0.229-0.102-0.682-0.302-0.906-0.404c-3.371,1.593-7.252,1.101-10.706,2.445c-1.008-0.77-2.265-0.901-3.473-0.96
	c-1.149,1.081-2.805,0.438-4.189,0.828c0.453,0.068,1.359,0.2,1.812,0.268c-1.305,1.13-3.614,1.062-4.846-0.136
	c-0.726-1.904-0.672-4.145,0.443-5.898c0.848-2.046-1.924-3.01-3.068-4.174c0.316-0.195,0.955-0.589,1.271-0.784
	c0.02-0.214,0.059-0.633,0.078-0.847c-0.599-0.034-1.184-0.068-1.753-0.102c-0.575-0.346-1.003-1.125-1.744-0.93
	c-1.135,1.296-1.549,3.015-1.87,4.661c-0.472,0.351-0.921,0.716-1.383,1.047c-0.468-0.57-0.843-1.193-1.208-1.802
	c-0.224-0.097-0.667-0.292-0.891-0.39c-1.466-3.507-5.09-5.382-6.765-8.777c-4.5-0.463-8.962-1.242-13.472-1.641
	c-0.963-10.637,3.121-10.411-9.712-11.28c-0.17-0.667-0.331-1.335-0.531-1.977c-0.682-0.321-1.559-0.292-2.099-0.789
	c-0.419-1.072-0.662-2.187-1.023-3.268c-0.76-0.321-1.515-0.653-2.245-0.984c-1.057,0.448-2.182,0.755-3.127,1.393
	c-0.36,0.901-0.473,1.88-0.779,2.801c-0.584,0.394-1.349,0.39-1.973,0.594c-0.433,0.813-0.575,1.714-0.609,2.62
	c-0.847-0.044-1.675-0.083-2.494-0.117c-0.107-0.2-0.322-0.594-0.429-0.794c-1.062,1.159-2.708,1.218-4.111,1.622
	c-0.141,0.234-0.429,0.706-0.575,0.945c-0.58,0.107-1.149,0.219-1.705,0.336c-0.029,4.695-0.219,9.4,0.205,14.081
	c-1.057,0.112-2.09,0.239-3.122,0.36c-0.093,0.317-0.288,0.945-0.385,1.261c-0.994,0.083-1.978,0.17-2.952,0.268
	c-0.492,4.612,0,9.249-0.132,13.876c-0.735,0.156-1.456,0.312-2.162,0.472c-0.063,0.336-0.195,1.003-0.258,1.339
	c-1.344,0.404-2.708,0.716-4.082,0.945c-0.2,4.549,0.126,9.108,0.083,13.662c-0.711,0.19-1.408,0.38-2.094,0.575
	c-0.053,0.331-0.166,0.994-0.219,1.325c-1.31,0.278-2.869,0.015-3.989,0.755c-0.55,1.17-0.061,20.561,0.049,22.385
	c-0.682-0.01-1.354-0.02-2.011-0.024c0.039,0.244,0.122,0.731,0.161,0.974c-0.526-0.027-14.446,0.01-14.446,0.01
	c0.005-0.38,0.024-1.145,0.029-1.524c-14.191-1.224-15.697-0.482-18.82,0.063c0.015,1.106,0.029,2.216,0.063,3.332
	c-1.944,0.348-34.007,4.439-34.747,4.398c-0.071,4.975,0.109,109.482,0.146,115.799c-4.919,0.55-9.887,0.375-14.802,0.906
	c0.185,1.895,0.199,3.804,0.151,5.713c-1.836,0.336-3.721,0.39-5.528-0.063c-0.945-0.901-2.226-1.198-3.453-0.779
	c-0.482-0.156-0.955-0.307-1.412-0.453c0.351,0.511,0.706,1.018,1.081,1.544c-1.145,0.122-2.289,0.248-3.414,0.39
	c-0.015-1.115-0.024-2.231-0.01-3.336c-2.504-1.632-5.557-0.156-8.305-0.453c0.112-0.438,0.341-1.315,0.453-1.749
	c-0.273,0.039-0.541,0.088-0.779,0.151c0.029,0.404,0.083,1.213,0.112,1.622c-0.453-0.005-1.369-0.015-1.826-0.019
	c-0.01-0.36-0.034-1.081-0.044-1.442c-1.359,0.054-2.713,0.107-4.052,0.214c-0.799-1.018-1.373-2.177-1.534-3.463
	c-0.185,0-0.55-0.005-0.735-0.01c-0.399-3.01-0.657-6.03-0.414-9.069c-0.672,0.726-1.208,1.554-1.666,2.421
	c-0.862-0.838-1.788-1.607-2.489-2.572c-0.804-1.953,0.292-4.403-1.247-6.079c-0.811-1.001-9.001-11.515-9.712-14.086
	c-1.271-1.9-0.536-4.398-0.779-6.556c-1.213-0.18-2.416-0.37-3.604-0.599c-0.624,0.185-1.227,0.38-1.821,0.58
	c-0.024,2.148-0.068,4.301-0.209,6.449c-1.34,2.01,0.569,1.202-5.772,9.118c-0.136-0.287-0.414-0.857-0.551-1.145
	c-1.378,0.029-2.747,0.015-4.106-0.102c-1.325-2.085-3.955-2.611-6.166-1.729c-0.487-0.268-0.964-0.536-1.427-0.794
	c-0.02,0.331-0.058,1.003-0.083,1.339c-0.17-0.282-0.516-0.843-0.687-1.125c-0.472,0.141-0.925,0.292-1.369,0.453
	c1.208-4.354,0.346-8.933,0.438-13.384c-1.51-0.283-3.044-0.448-4.564-0.336c-4.35,0.268-8.679-0.287-12.975-0.838
	c-0.19,0.195-0.565,0.589-0.755,0.784c-1.145,0.073-2.284,0.141-3.409,0.195c-1.724-0.623-3.57-1.271-5.382-0.653
	c0.258-0.672,0.585-1.325,0.77-2.026c-0.161-1.008-0.492-1.977-0.633-2.981c1.252-1.081,0.74-2.844-0.555-3.619
	c0.073-0.74,0.316-1.432,0.886-1.948c-0.063-0.424-0.112-0.843-0.146-1.257c-1.385-1.887-0.807,1.581-1.12-12.498
	c0.093-0.989-0.716-1.617-1.271-2.284c-7.504-1.046-6.895,2.022-9.658-0.96c-0.068,0.253-0.205,0.76-0.278,1.013
	c-1.184,0.015-2.362-0.01-3.526-0.073c-0.161-0.882-0.292-1.753-0.438-2.625c-0.502,0.283-0.994,0.575-1.476,0.872
	c0.193-18.32,0.25-14.811-1.641-19.692c-5.953-0.342-49.432-2.23-55.744-2.314c-0.161,1.544-0.307,3.093-0.409,4.647
	c-2.649,0.019-5.284,0.375-7.929,0.132c0.166,0.38,0.336,0.765,0.521,1.154c1.174-0.297,2.357-0.536,3.57-0.721
	c0.136,1.096,0.258,2.197,0.38,3.302c-0.862,0.02-1.714,0.044-2.557,0.073c-0.316,0.287-0.623,0.58-0.92,0.877
	c-2.104,0.36-4.233,0.633-6.356,0.365c-1.227,0.867-2.737,0.974-4.169,1.174c0.17,30.812,0.17,61.623,0.497,92.43
	c-0.243,0.024-0.735,0.073-0.979,0.093c-0.021-1.724-0.661-116.897-0.594-118.848c-1,0.183-17.327,3.037-19.448,3.205
	c-0.877,0.721-1.739,1.456-2.591,2.192c-0.034,0.721-0.054,1.451-0.063,2.187c-0.258,0.078-0.779,0.234-1.037,0.312
	c-0.195,0.56-0.409,1.111-0.633,1.661c-1.807,1.096-4.281,0.346-5.932,1.788c-4.802,3.887-9.619,7.764-14.524,11.524
	c0.697,10.072,0.935,20.169,1.534,30.251c-0.619,0.833-1.125,1.744-1.534,2.698c-0.292,0.044-0.867,0.132-1.159,0.175
	c-0.166-0.526-0.322-1.047-0.468-1.563c-0.643,0.068-1.276,0.146-1.9,0.224c-0.166,0.682-0.326,1.369-0.472,2.06
	c-1.003-0.107-1.5-0.877-1.778-1.739c-1.354-0.36-2.007,0.697-2.153,1.875c-0.589,0.073-1.164,0.156-1.724,0.244
	c0.034-0.375,0.097-1.115,0.132-1.49c-0.346-0.024-1.038-0.083-1.383-0.112c-0.015-0.789-0.02-1.578-0.02-2.357
	c-0.687-1.188-0.692-2.435,0.273-3.468c-2.479-6.574,0.671-13.136-2.27-16.925c-1.744,0.034-3.546,0.346-5.246-0.141
	c-0.326-1.111-0.234-2.279-0.487-3.39c-2.06-1.13-4.588-0.735-6.858-0.935c-0.015-0.414-0.044-1.247-0.059-1.661
	c-2.591-1.062-5.484-0.711-8.197-1.223c-0.141-0.346-0.424-1.037-0.565-1.383c-0.604,0.536-0.911,1.573-1.861,1.51
	c-0.097-0.395-0.297-1.184-0.395-1.583c-0.17,0.044-0.511,0.122-0.682,0.161c-0.097,1.12-0.925,1.7-1.934,1.982
	c-0.784-0.643-1.432-1.427-1.817-2.362c-0.687,0.19-0.94,0.779-1.037,1.442c-0.317-0.205-0.955-0.619-1.271-0.828
	c0.059-0.419,0.175-1.266,0.234-1.69c-0.648,1.013-1.305,2.031-2.187,2.854c-1.978-0.19-3.984-0.209-5.932,0.131
	c-0.282,0.37-0.511,0.77-0.682,1.203c-1.002-0.038-19.534,0.696-23.515,1.851c-0.005,0.857,0,1.719,0.02,2.591
	c-0.857,0.156-1.705,0.326-2.542,0.497c-0.161,0.302-0.487,0.911-0.648,1.213c-0.857-0.399-1.71-0.794-2.552-1.179
	c-0.458,0.331-0.911,0.672-1.349,1.013c-0.925-0.005-1.836-0.005-2.747-0.005c-0.073,4.866,0.151,9.732,0.049,14.597
	c-0.653-0.628-0.974-1.417-1.149-2.265c0.024,0.726,0.049,1.461,0.078,2.197c-0.692,0.054-1.369,0.117-2.036,0.18
	c-0.151-0.662-0.297-1.315-0.443-1.958c-0.01,0.731-0.01,1.461,0.005,2.202c-0.506,0.034-1.525,0.097-2.036,0.131
	c0.122-0.726,0.258-1.442,0.399-2.158c-0.385,1.14-1.266,1.836-2.421,2.094c-0.019-0.424-0.054-1.271-0.068-1.695
	c-0.297,0.492-0.584,0.994-0.862,1.5c-0.497-0.234-0.984-0.463-1.466-0.687c-0.736,0.161-1.534,0.75-2.25,0.268
	c-0.156-0.672-0.273-1.344-0.356-2.012c0.351-0.054,1.047-0.156,1.398-0.205c-0.005-0.419-0.015-1.261-0.02-1.685
	c-1.524,0.102-1.203-1.398-1.354-2.396c0.336-0.083,1.003-0.248,1.339-0.331c0.01-0.419,0.034-1.261,0.044-1.68
	c-1.5,0.18-1.237-1.208-1.31-2.202c0.331-0.136,0.994-0.404,1.325-0.541c-0.02-0.448-0.058-1.349-0.083-1.797
	c-0.287,0.01-0.872,0.034-1.164,0.049c-0.029-0.765-0.054-1.525-0.063-2.275c0.341-0.063,1.023-0.19,1.364-0.253
	c-0.146-0.911-0.02-2.163-1.344-1.948c-0.097-0.599-0.185-1.193-0.263-1.783c0.487-0.253,0.979-0.507,1.485-0.75
	c-0.01-0.38-0.029-1.14-0.039-1.524c-1.617,0.239-1.344-1.286-1.442-2.362c0.375-0.127,1.13-0.375,1.51-0.502
	c-0.024-0.375-0.073-1.12-0.097-1.495c-1.437,0.044-1.32-1.281-1.32-2.299c1.305-0.068,1.412-1.111,1.398-2.163
	c-1.456,0.141-1.505-1.047-1.198-2.089c0.93-0.375,1.028-1.296,1.12-2.167c-1.403,0.063-1.412-1.174-1.549-2.197
	c0.365-0.132,1.086-0.399,1.447-0.531c0.117-0.911,0.044-1.773-0.877-2.216c-0.049-0.56-0.078-1.11-0.088-1.661
	c0.867-0.385,0.974-1.257,1.042-2.094c-1.671-0.122-2.036-2.854-0.141-2.859c0.01-0.604,0.029-1.198,0.058-1.792
	c-0.355-0.049-1.062-0.141-1.412-0.19c0.117-0.998,0.049-2.206,1.31-2.44c0.005-0.497,0.019-0.984,0.044-1.471
	c-1.651,0-1.154-1.671-1.286-2.762c0.307-0.088,0.921-0.263,1.227-0.351c-0.005-0.628,0.005-1.252,0.024-1.87
	c-0.317-0.073-0.945-0.219-1.261-0.292c0.01-0.799,0.029-1.598,0.054-2.387c0.297-0.073,0.886-0.214,1.184-0.283
	c-0.01-0.623-0.005-1.237,0.01-1.846c-1.792,0.024-1.106-1.851-1.203-2.991c1.89-0.307,0.73-2.26,0.682-3.448
	c-3.434-0.253-6.765,1.734-10.146,0.594c0.01-2.689,0.01-5.377-0.029-8.061c0.687-0.487,1.378-0.969,2.085-1.451
	c-0.068-0.268-0.209-0.813-0.278-1.081c-0.774-0.36-2.089-0.185-2.245-1.257c-0.375-1.802,0.214-3.882-1.218-5.338
	c-0.024-1.115-0.015-2.226,0.01-3.331c-3.117-0.365-6.307-0.726-9.396-0.024c-0.083,1.003,0.395,2.245-0.395,3.059
	c-2.698,0.18-5.401-0.268-8.095-0.336c0.107-0.463,0.219-0.916,0.341-1.374c-0.624,0.132-1.237,0.273-1.841,0.419
	c-0.302,0.39-0.604,0.779-0.911,1.164c-0.502-0.331-0.838-0.804-1.154-1.281c-0.068,0.195-0.2,0.589-0.263,0.784
	c-1.68,0.248-3.385-0.097-5.051,0.214c-1.534,0.507-3.064,1.057-4.671,1.257c-0.307-0.287-0.599-0.57-0.882-0.847
	c-0.56,0.443-1.115,0.891-1.656,1.344c0.253,1.442-0.575,2.484-1.856,3.025c-6.866-1.115-6.995-0.266-12.878,1.072
	c-0.156,2.674,0.234,5.377-0.302,8.022c-0.263,1.374-0.146,2.776-0.005,4.16c-2.547,0.253-5.075,0.643-7.632,0.711
	c-0.19,0.94-0.375,1.88-0.57,2.825c1.12,0.102,2.245,0.205,3.38,0.287c-0.044,1.008-0.088,2.021-0.112,3.039
	c-0.984,0.024-1.968,0.068-2.937,0.127c-0.044,0.711-0.083,1.422-0.117,2.143c1.111,0.015,2.221,0.024,3.341,0.044
	c-0.083,0.828-0.146,1.671-0.219,2.503c-0.945,0.01-1.885,0.019-2.815,0.044c-0.112,0.706-0.219,1.417-0.317,2.138
	c1.091,0.005,2.192,0.015,3.297,0.005c-0.034,0.848-0.073,1.69-0.093,2.547c-0.955,0.029-1.904,0.063-2.849,0.097
	c-0.117,0.716-0.219,1.437-0.317,2.167c1.115,0.005,2.236,0.019,3.365,0.034c-0.024,0.643-0.039,1.286-0.049,1.938
	c-1.013,0.088-2.012,0.18-3.01,0.263c-0.122,0.648-0.234,1.3-0.336,1.958c1.13,0.088,2.26,0.17,3.405,0.253
	c-0.019,0.36-0.053,1.086-0.068,1.451c-1.003,0.039-1.992,0.088-2.976,0.136c-0.19,0.838-0.365,1.68-0.546,2.528
	c0.926,0.049,1.856,0.102,2.796,0.161c-0.024,0.643-0.044,1.286-0.049,1.939c-0.745,0.068-1.481,0.136-2.206,0.219
	c-0.102,0.667-0.2,1.344-0.282,2.021c0.74,0.063,1.476,0.117,2.236,0.19c0.01,0.662,0.029,1.33,0.058,2.002
	c-0.711,0.044-1.408,0.093-2.094,0.151c-0.019,0.643-0.019,1.291-0.015,1.948c0.599,0.107,1.203,0.244,1.807,0.409
	c0.239,0.594,0.39,1.242,0.56,1.88c-0.804,0.024-1.597,0.049-2.382,0.083c0.005,0.726,0.019,1.461,0.044,2.197
	c0.721-0.054,1.451-0.102,2.187-0.141c-0.049,0.716-0.093,1.442-0.122,2.167c-0.701,0.054-1.393,0.112-2.075,0.175
	c0.005,0.692,0.02,1.393,0.039,2.099c0.755,0,1.52,0.005,2.294,0.015c0,0.696,0.01,1.398,0.034,2.104
	c-0.76,0.039-1.5,0.088-2.24,0.141c-0.068,0.662-0.132,1.335-0.185,2.012c0.852,0.049,1.719,0.107,2.586,0.166
	c-0.098,0.638-0.19,1.281-0.268,1.929c-0.706,0.073-1.403,0.151-2.089,0.244c-0.063,0.623-0.117,1.257-0.171,1.89
	c0.867,0.078,1.744,0.166,2.62,0.263c-0.039,0.482-0.122,1.442-0.166,1.924c-0.735,0.034-1.451,0.088-2.172,0.141
	c-0.098,0.696-0.195,1.393-0.273,2.104c0.745-0.015,1.505-0.019,2.275-0.019c-0.083,0.706-0.166,1.412-0.224,2.133
	c-0.604,0.054-1.198,0.107-1.783,0.171c-0.093,0.687-0.161,1.393-0.239,2.089c0.872,0,1.739-0.005,2.63,0.005
	c-0.36,0.721-0.706,1.456-1.052,2.187c-0.351,0.019-1.052,0.054-1.403,0.073c-0.029,0.468-0.088,1.403-0.112,1.87
	c0.779,0.127,1.563,0.253,2.362,0.395c-0.317,0.638-0.633,1.281-0.94,1.929c-0.312,0.063-0.94,0.18-1.252,0.244
	c-0.029,0.468-0.088,1.408-0.117,1.875c0.726,0.039,1.456,0.078,2.201,0.127c-0.131,0.706-0.268,1.417-0.38,2.133
	c-0.589,0.058-1.174,0.127-1.749,0.195c-0.054,0.628-0.097,1.261-0.131,1.9c0.799,0.058,1.602,0.117,2.421,0.19
	c-0.365,0.565-0.716,1.135-1.067,1.71c-0.326,0.01-0.989,0.029-1.32,0.039c0.005,0.794,0.015,1.593,0.034,2.396
	c0.633,0.039,1.276,0.083,1.924,0.136c-0.015,0.385-0.039,1.154-0.054,1.539c-1.193,0.292-2.07,1.106-2.728,2.114
	c1.062,0.448,2.192,0.677,3.331,0.891c-0.886,1.081-1.914,2.031-3.039,2.859c0.209,0.307,0.628,0.921,0.838,1.227
	c0.872,0.019,1.744,0.054,2.63,0.117c-0.58,0.185-1.184,0.336-1.753,0.516c-0.419,0.711-0.76,1.476-1.291,2.119
	c-0.638,0.209-1.31,0.302-1.953,0.448c-0.122-2.859-0.029-5.713-0.093-8.567c-1.544,0.063-3.117,0.161-4.608-0.292
	c-0.156,0.097-0.472,0.287-0.628,0.385c-1.042-0.063-2.065-0.2-3.064-0.453c-0.541,0.531-1.145,0.979-1.807,1.339
	c-0.609-1.5,1.359-3.629-0.55-4.505c0.054-0.906,0.02-1.919,0.93-2.435c-0.127-0.813-0.448-1.568-0.926-2.221
	c0.205-0.17,0.619-0.516,0.828-0.692c-0.19-0.166-0.57-0.502-0.755-0.667c0.921-0.351,0.701-1.286,0.828-2.012
	c-0.891-0.472-0.886-1.456-1.013-2.309c0.253-0.146,0.76-0.433,1.013-0.58c-0.058-0.511-0.107-1.023-0.146-1.525
	c-0.575-0.658-1.145-1.33-1.7-1.987c0.56-0.283,1.159-0.516,1.719-0.838c0.068-0.589,0.132-1.174,0.18-1.758
	c-0.458,0.02-1.378,0.063-1.841,0.083c0.01-0.726,0.029-1.447,0.059-2.163c0.39-0.049,1.179-0.146,1.573-0.195
	c-0.019-0.662-0.029-1.32-0.029-1.968c-0.57-0.015-1.135-0.024-1.695-0.034c0.005-0.677,0.015-1.349,0.034-2.021
	c0.565-0.102,1.135-0.195,1.71-0.287c-0.024-0.599-0.044-1.193-0.049-1.783c-0.58-0.083-1.145-0.156-1.705-0.229
	c0.019-0.711,0.049-1.417,0.088-2.119c0.57-0.063,1.149-0.122,1.739-0.175c-0.059-0.599-0.107-1.193-0.146-1.778
	c-0.57-0.097-1.135-0.19-1.69-0.278c0-0.623,0.024-1.237,0.073-1.851c0.55-0.205,1.13-0.341,1.714-0.487
	c-0.039-0.614-0.073-1.223-0.097-1.826c-0.565,0.005-1.125,0.015-1.675,0.034c-0.015-0.706-0.02-1.412-0.015-2.109
	c0.575-0.117,1.154-0.229,1.739-0.336c-0.058-0.662-0.107-1.325-0.151-1.982c-0.385,0.01-1.154,0.034-1.539,0.044
	c-0.044-0.682-0.078-1.359-0.107-2.031c0.584-0.117,1.174-0.229,1.768-0.341c-0.024-0.463-0.073-1.388-0.102-1.856
	c-0.409,0.015-1.227,0.034-1.636,0.044c-0.015-0.682-0.015-1.364-0.01-2.036c0.58-0.19,1.164-0.375,1.758-0.555
	c-0.214-0.804-0.404-1.598-0.594-2.387c-0.399,0.088-0.789,0.185-1.174,0.287c0.2-5.031-0.161-10.058-0.209-15.094
	c0.058-1.31-1.106-2.187-1.505-3.351c-0.395-2.391,0.209-4.841-0.263-7.218c-2.016-1.699-13.769,0.439-15.055-1.973
	c-0.39-1.924-0.356-3.906-0.633-5.845c-1.71-0.404-3.463-0.507-5.202-0.56c-0.068-1.101-0.044-2.211-0.224-3.293
	c-0.521-0.37-1.111-0.628-1.656-0.901c-3.814,1.339-7.813,0.17-11.724,0.278c-4.004-0.526-7.798,1.549-11.792,1.115
	c-0.784,6.144,0.945,5.905-1.749,7.233c-2.143-0.901-4.52-0.614-6.746-0.253c-0.511,2.172-2.976,1.778-4.544,1.149
	c-0.161,0.209-0.477,0.623-0.633,0.828c-2.542,0.317-5.061,0.784-7.569,1.281c-0.044,0.326-0.131,0.989-0.175,1.315
	c0.385,0.015,1.145,0.039,1.525,0.049c-0.044,2.367-0.063,4.729,0,7.101c-1.008,0.107-2.109-0.049-3.01,0.472
	c-0.166,0.609-0.258,1.232-0.355,1.861c1.101-0.005,2.211-0.005,3.332-0.005c0.044,0.76,0.093,1.529,0.151,2.299
	c-1.042,0.141-2.085,0.278-3.112,0.429c-0.117,0.658-0.224,1.325-0.326,1.992c1.154-0.034,2.309-0.068,3.478-0.097
	c0.005,1.028,0.01,2.06,0.024,3.098c-1.018,0.049-2.031,0.097-3.039,0.127c-0.151,0.735-0.297,1.471-0.429,2.216
	c1.154-0.034,2.314-0.068,3.478-0.093c0.005,0.648,0.015,1.3,0.034,1.963c-1.101,0.127-2.187,0.268-3.273,0.419
	c-0.034,0.662-0.059,1.33-0.073,2.002c1.11,0.01,2.226,0.024,3.351,0.039c-0.01,0.633-0.015,1.271-0.01,1.914
	c-1.096,0.132-2.177,0.268-3.263,0.404c-0.029,0.477-0.093,1.422-0.122,1.895c1.13,0.039,2.265,0.073,3.414,0.117
	c-0.02,0.653-0.034,1.315-0.039,1.982c-0.341,0.063-1.033,0.185-1.374,0.248c0,0.662,0.01,1.335,0.024,2.012
	c0.346,0,1.033,0.005,1.374,0.01c0.034,0.463,0.102,1.388,0.136,1.851c-0.365,0.083-1.106,0.258-1.476,0.346
	c0.024,0.755,0.053,1.52,0.097,2.289c0.341,0.058,1.018,0.175,1.359,0.234c0.015,0.555,0.039,1.111,0.068,1.68
	c-0.39,0.029-1.169,0.093-1.559,0.122c-0.395,1.568,0.906,2.494,1.924,3.409c-0.57,0.136-1.125,0.273-1.675,0.414
	c0,0.648,0.01,1.3,0.024,1.958c0.356,0.024,1.067,0.073,1.427,0.097c0.024,0.653,0.063,1.31,0.107,1.977
	c-0.546,0.083-1.081,0.17-1.612,0.258c0.02,0.623,0.049,1.247,0.088,1.875c0.326,0.024,0.984,0.078,1.31,0.102
	c0.058,0.433,0.175,1.3,0.229,1.734c-0.492,0.195-0.979,0.395-1.461,0.599c-0.005,0.594,0,1.203,0.01,1.812
	c0.506,0.205,1.023,0.419,1.544,0.638c-0.083,0.385-0.244,1.159-0.326,1.544c-0.336,0.107-1.013,0.317-1.349,0.424
	c0.175,0.721,0.355,1.442,0.55,2.172c-1.169-0.136-2.333-0.273-3.497-0.395c0.112-2.518-0.619-4.963-0.57-7.476
	c-0.19-0.2-0.56-0.604-0.745-0.809c0,0-3.624-100.511-3.794-146.362c2.266-0.443,19.943-0.41,10.73-11.587
	c1.038-0.998,2.221-1.841,3.229-2.874c0.322-1.953-0.107-3.974,0.39-5.908c0.424-1.714,0.775-3.453,0.848-5.221
	c-0.375-0.409-0.755-0.794-1.067-1.232c0.112-0.765,0.38-1.505,0.424-2.275c-1.271-1.159-3.025-1.393-4.671-1.339
	c-0.458-0.321-0.906-0.643-1.349-0.964c0.66-8.001,0.615-5.767-1.354-8.563c0.17-0.185,0.506-0.555,0.672-0.74
	c-0.843-0.229-1.68-0.463-2.508-0.701c0.058,0.438,0.18,1.315,0.244,1.758c-0.823-0.161-1.636-0.326-2.445-0.492
	c0.136-0.356,0.409-1.062,0.546-1.417c-0.39,0.024-1.159,0.068-1.544,0.093c0.326-2.309,0.204-4.642,0.282-6.96
	c-0.229,0.015-0.687,0.044-0.916,0.063c-0.034-1.296,0.034-2.611-0.214-3.887c-0.507-1.374-2.762-2.133-1.739-3.843
	c0.234-1.447-0.896-2.421-1.286-3.663c-0.152-38.098,0.131-51.409,0.131-51.409c1.028-1.885,2.961-3.765,2.421-6.083
	c-1.013-1.943-2.908-3.273-3.804-5.304c2.229-58.901-1.565-23.436-0.292-52.729c0.136-1.617-1.339-2.771-1.383-4.34
	c-1.166-48.452,1.555-40.639-1.539-43.948c-1.84,3.04-2.329,41.601-2.396,45.263c-0.443,0.404-0.872,0.809-1.3,1.213
	c0.297,5.104-0.219,10.199-0.273,15.303c-2.814,2.083-0.109,16.542-1.369,39.189c-0.599,3.583-7.621,4.809-1.578,10.852
	c-0.082,3.343-0.353,57.596-0.36,58.608c-1.193,0.185-2.352,0.526-3.4,1.13c0.156,2.046,0.185,4.096,0.209,6.152
	c0.195,0.166,0.584,0.502,0.784,0.672c0.166,1.598,0.219,3.205,0.146,4.817c-0.258-0.19-0.775-0.57-1.028-0.76
	c0.073,0.18,0.219,0.531,0.292,0.711c-1.354,0.287-2.766,0.75-4.086,0.083c-0.102,0.209-0.317,0.633-0.419,0.848
	c-1.276,0.278-2.684,0.36-3.716,1.242c-0.55,2.255,0,4.598-0.224,6.887c-1.836,1.179-4.325,0.77-6.015,2.279
	c0.205,0.847,0.779,1.534,1.266,2.24c-0.584,0.107-1.164,0.219-1.734,0.331c0.049,1.763,0.239,3.521,0.677,5.236
	c0.516,2.197,0.078,4.466,0.326,6.682c0.774,1.31,2.216,2.051,3.356,3.02c-6.729,6.881,0.612,11.873,9.24,11.305
	c2.685,2.368-2.191,105.461-2.294,106.462c-1.271-0.331-2.26,0.487-3.215,1.169c-0.034,0.331-0.097,0.989-0.131,1.32
	c-1.568,0.024-3.137,0.039-4.695,0.073c-0.409-0.623-0.813-1.247-1.193-1.87c-1.909-0.779-3.999-0.37-5.986-0.633
	c-0.331-0.341-0.657-0.682-0.974-1.013c-0.166,0.268-0.497,0.794-0.662,1.062c-2.484-0.273-5.09-0.015-7.471-0.867
	c-0.823,0.205-1.637,0.438-2.435,0.701c0.468,0.073,1.407,0.219,1.88,0.292c-0.448,0.443-0.901,0.886-1.339,1.339
	c-0.02,2.65-0.01,5.299-0.015,7.949c-3.336,0.852-6.741-0.117-10.102-0.258c-0.084-12.129,0.117-21.421,0.117-21.421
	c4.739,0.521,9.503,0.755,14.271,0.882c0.029,0.94,0.083,1.89,0.136,2.84c0.784,0.005,1.632,0.292,2.396-0.029
	c0.774-1.218,0.507-3.093,2.133-3.653c0.278,0.136,0.833,0.404,1.11,0.541c0.346-1.252,1.218-3.01-0.312-3.814
	c-3.054,0.629-1.766,1.694-9.454,1.271c-8.939-3.8-22.03-1.966-30.144-3.687c-2.572,1.49-5.299-0.945-7.91,0.404
	c-10.608-2.104-28.435-1.721-31.893-0.843c-1.203-4.773,0.643-9.678-0.511-14.466c0.711,0.2,1.442,0.414,2.158,0.633
	c4.406-2.566,18.225-5.285,19.882-5.557c-0.492-0.945-0.867-1.929-1.31-2.883c0,0-21.516,4.228-24.373,4.71
	c-2.192,0.292-3.789,1.977-5.757,2.83c-0.852-0.331-1.71-0.643-2.562-0.95c-0.589,0.171-1.179,0.336-1.758,0.507
	c-0.302,0.916-0.56,1.846-0.77,2.796c0.76-0.083,1.52-0.166,2.289-0.244c0,0.833,0.015,1.68,0.029,2.523
	c0.17,0.229,0.511,0.682,0.682,0.911c0.682-0.073,1.364-0.136,2.055-0.2c0.317-0.974,0.516-1.977,0.599-2.991
	c1.617-0.302,3.219-0.667,4.832-0.994c-0.316,0.511-0.628,1.028-0.94,1.544c0.312,0.146,0.945,0.448,1.257,0.599
	c0.331,3.833-0.136,7.676-0.015,11.514c-1.242,0.019-2.445,0.302-3.424,1.086c-0.224-0.2-0.662-0.604-0.882-0.804
	c-0.248,0.701-0.492,1.904-1.52,1.266c-0.282-0.546-0.175-1.086,0.312-1.627c-0.156,0.146-0.468,0.438-0.624,0.58
	c-0.273,0.438-0.541,0.877-0.804,1.32c-1.447-1.227-3.4-0.833-5.061-0.39c-0.803,6.746-0.788-2.671-0.336,14.583
	c-0.74,0.029-1.471,0.058-2.197,0.097c-0.239,1.383-0.2,2.791,0.283,4.13c-0.312,0.093-0.935,0.273-1.247,0.365
	c-0.229,0.755-0.458,1.515-0.687,2.275c-0.774-0.234-1.549-0.472-2.313-0.706c0.01,0.429,0.034,1.286,0.044,1.714
	c0.984,0.546,2.075,0.76,3.2,0.628c-0.224,0.619-0.458,1.232-0.672,1.861c0.419,0.102,1.252,0.297,1.671,0.395
	c0.18,1.033-1.037,1.403-1.627,2.012c0.088,0.492,0.185,0.994,0.287,1.5c0.36,0.034,1.081,0.102,1.447,0.136
	c-0.049,0.229-0.136,0.682-0.185,0.911c-0.604,0.633-1.193,1.281-1.787,1.924c0.604,0.273,1.218,0.555,1.831,0.848
	c0.01,0.219,0.024,0.658,0.034,0.877c-0.745,0.77-1.281,1.695-1.646,2.698c0.438,0.015,1.31,0.039,1.749,0.054
	c-0.029,0.468-0.049,0.94-0.063,1.412c-0.292,0.18-0.877,0.536-1.169,0.716c0.166,0.166,0.487,0.507,0.648,0.672
	c-0.487,0.263-0.969,0.536-1.447,0.813c0.443,0.078,1.325,0.239,1.768,0.321c0.755,1.232-0.969,2.143-1.612,3.059
	c0.775,0.365,1.544,0.74,2.318,1.14c-0.58,0.458-1.242,0.789-1.914,1.072c-0.093,0.584-0.171,1.174-0.248,1.768
	c0.701,0.127,1.412,0.263,2.124,0.409c-0.687,1.11-1.51,2.128-2.396,3.088c0.721,0.097,1.451,0.195,2.182,0.292
	c-0.39,0.726-0.77,1.466-1.14,2.211c-0.166-0.122-0.492-0.356-0.657-0.472c-0.049,0.648-0.093,1.305-0.127,1.968
	c0.589-0.093,1.174-0.18,1.778-0.244c0.015,0.395,0.049,1.179,0.068,1.568c-0.57,0.107-1.13,0.214-1.685,0.331
	c-0.049,0.502-0.093,1.008-0.131,1.52c0.55,0.088,1.106,0.18,1.666,0.278c0.044,0.497,0.097,0.998,0.156,1.505
	c-0.687,0.307-1.354,0.623-2.026,0.945c0.843,1.417,0.638,3.034,0.37,4.583c0.37,0.054,1.106,0.156,1.476,0.209
	c0,0.526,0,1.057,0.01,1.598c-0.341,0.015-1.028,0.044-1.374,0.058c-0.136,0.575-0.268,1.154-0.395,1.739
	c0.399,0.024,1.198,0.068,1.598,0.088c-0.039,0.989-0.521,1.807-1.325,2.372c0.185,0.336,0.375,0.672,0.57,1.018
	c1.15,1.159,0.112,2.396-0.633,3.439c0.297,0.107,0.891,0.321,1.188,0.429c0.034,0.589,0.073,1.184,0.122,1.788
	c-0.502,0.468-1.003,0.935-1.495,1.412c0.336,0.219,1.008,0.658,1.344,0.877c-0.093,0.93-0.205,1.861-0.312,2.796
	c-0.214-0.01-0.653-0.029-0.872-0.039c0.584,0.633,1.188,1.281,1.583,2.075c-0.521,0.453-1.388,0.726-1.422,1.544
	c0.492,0.721,1.057,1.388,1.607,2.08c-0.39,0.19-1.164,0.575-1.554,0.765c0.482,1.042,0.964,2.094,1.408,3.161
	c-0.244,0.097-0.735,0.287-0.984,0.385c-0.107,0.502-0.219,1.013-0.326,1.525c0.433,0.253,0.877,0.507,1.325,0.774
	c-0.283,0.735-0.55,1.486-0.813,2.236c-0.258,0.073-0.774,0.224-1.038,0.297c0.604,0.351,2.392,0.497,1.627,1.539
	c-1.846,0.132-3.687,0.205-5.519,0.438c-0.049,1.836-0.029,3.682,0.005,5.528c-0.76,0.063-1.51,0.141-2.255,0.234
	c0.02,0.365,0.054,1.091,0.073,1.451c-0.385-0.214-0.76-0.424-1.13-0.628c-0.794,0.599-1.602,1.179-2.445,1.7
	c0.312-0.078,0.935-0.224,1.247-0.302c-1.335,2.552-2.284,5.26-2.942,8.061c-0.19-0.034-0.57-0.107-0.76-0.141
	c0.136,0.468,0.326,0.93,0.565,1.378c-0.282,0.034-0.852,0.107-1.14,0.141c-0.141,0.735-0.273,1.49-0.409,2.24
	c-1.378-0.341-2.723-0.794-3.955-1.505c0.088-0.555,0.175-1.111,0.268-1.656c-0.282,0.385-0.565,0.774-0.833,1.169
	c-2.523-0.638-4.992-1.544-7.243-2.849c-1.057,0.2-2.119,0.404-3.161,0.638c-0.638-0.925-1.115-1.943-1.447-3.01
	c-2.182-0.297-4.359-0.711-6.57-0.638c-0.122,0.258-0.375,0.77-0.497,1.028c-0.886-0.326-1.758-0.653-2.62-1.013
	c-0.619,0.127-1.232,0.263-1.841,0.404c-1.244-9.293,0.213-23.101-1.198-25.829c-1.573-0.015-3.19,0.195-4.72-0.253
	c-0.555-3.078-0.395-6.332-0.516-9.478c0.258-3.711-1.198-7.223-1.588-10.866c-0.224,1.71-0.394,3.434-0.38,5.168
	c-0.073-0.336-0.224-1.003-0.302-1.339c-0.195-0.073-0.584-0.219-0.779-0.292c-0.024-1.232-0.424-2.391-1.033-3.443
	c-0.955,1.568-1.208,3.429-1.973,5.085c0.015-0.385,0.044-1.159,0.058-1.544c-0.882-1.213-1.315-2.64-1.525-4.101
	c-0.239,2.094-0.209,4.208-0.477,6.303c-0.36,0.034-1.077,0.102-1.432,0.141c-0.132,0.287-0.395,0.872-0.526,1.164
	c-0.005-1.812-0.019-3.619,0.044-5.426c-1.349-0.088-1.656,1.101-1.817,2.206c-0.307-0.078-0.925-0.229-1.232-0.307
	c0.083,1.237,0.185,2.474,0.322,3.711c-7.586,1.428-7.669-2.745-14.675,0.273c-2.352,1.047-4.978,0.964-7.467,1.437
	c0.195,1.982,0.123-0.484,0.005,10.676c-1.203-0.268-2.513-1.422-3.716-0.706c-1.666,1.179-3.536-0.482-5.358-0.399
	c-0.132-3.171,0.166-6.366-0.365-9.508c-0.711-0.375-1.427-0.745-2.129-1.115c0.024-0.843,0.049-1.68,0.083-2.513
	c2.055-0.365,4.12-0.813,6.23-0.662c0.355-0.395,0.711-0.784,1.081-1.164c-1.359-16.053,2.492-11.883-8.041-13.774
	c0-3.122,1.349-6.424-0.414-9.337c-0.458-0.253-0.92-0.482-1.393-0.682c-0.375-0.57-0.745-1.135-1.115-1.695
	c-5.364-0.007-11.301,0.742-14.953-2.109c-0.419,1.081-0.794,2.177-1.213,3.258c-2.294-0.745-4.72-0.789-7.082-0.409
	c-0.477-0.487-0.95-0.969-1.412-1.451c-1.135,0.073-2.275,0.107-3.409,0.141c0.068-1.037,0.141-2.07,0.224-3.098
	c-0.57,0.083-1.14,0.17-1.7,0.263c-0.049,1.534-0.088,3.098,0.321,4.603c-0.575,0.867-1.14,1.744-1.651,2.654
	c0.326,1.583,0.521,3.195,0.658,4.812c-0.229,0.015-0.682,0.039-0.911,0.054c0.984,1.008,0.697,2.465,0.472,3.726
	c-0.545-0.049-1.086-0.117-1.617-0.2c-1.091,0.239-2.202,0.419-3.322,0.375c-2.064,0.788-2.917-1.384-2.138,13.784
	c0.721,0.102,1.442,0.205,2.167,0.317c0.049,0.906,0.097,1.817,0.151,2.732c-2.659-0.049-5.319-0.078-7.973-0.049
	c-2.27-0.015-4.437,0.984-6.717,0.711c-0.146,0.19-0.433,0.575-0.58,0.765c-0.77-0.175-1.534-0.341-2.299-0.516
	c-0.697,1.062-0.994,2.275-0.823,3.546c-0.677,0.263-1.412,0.438-2.002,0.882c-0.219,1.169-0.224,2.367-0.492,3.531
	c-0.711,0.185-1.437,0.278-2.153,0.409c-0.044-0.399-0.127-1.203-0.17-1.602c-0.75-0.029-1.49-0.049-2.231-0.063
	c0.039,0.375,0.112,1.13,0.146,1.505c-0.001,0-47.541,1.3-47.542,1.3c-1.69,0.302-2.401-1.802-3.95-1.987
	c-2.231-0.351-4.486-0.477-6.717-0.804c-1.661-0.146-2.586-2.162-4.369-1.817c-1.909,0.185-3.999-0.336-5.781,0.487
	c-0.112,0.317-0.341,0.96-0.453,1.276c-12.852,1.579-8.167-0.909-29.384-1.159c-1.641-0.039-3.692,0.984-4.9-0.58
	c-0.112,0.302-0.336,0.911-0.448,1.218c-4.57,0.793-1.078-0.158-8.655,1.369c-0.044,0.555-0.083,1.115-0.122,1.685
	c-1-0.028-22.117,0.088-25.249-1.062c-0.476,0.064-10.996,0.428-11.699,0.351c-0.571,0.84-1.2,0.707-8.509,1.982
	c-0.029,1.164-0.068,2.328-0.127,3.497c-1.846,0.054-3.692,0.078-5.538,0.068c-0.117-0.146-0.351-0.429-0.468-0.575
	c-4.854,1.812-0.426-3.129-8.796-2.333c-0.307,0.94-0.419,1.919-0.351,2.913c-1.096-0.019-2.192-0.024-3.283-0.019
	c-0.073-0.39-0.214-1.164-0.287-1.554c-0.775,0.356-1.539,0.774-2.002,1.529c-4.344,0.127-8.699-0.044-13.043,0.097
	c-0.697,2.153-0.463,4.432-0.487,6.653c-0.711-0.097-1.417-0.185-2.128-0.273c0.049-0.964,0.088-1.929,0.083-2.879
	c-1.008,0.867,0.205,2.465-0.886,3.229c-0.74,0.638-1.807,0.448-2.703,0.633c0.015-0.438,0.039-1.315,0.053-1.753
	c0.925-0.063,1.856-0.117,2.781-0.2c-1.096-0.297-2.231-0.365-3.361-0.395c0.049,0.594,0.097,1.198,0.146,1.807
	c-0.399,0.346-0.794,0.701-1.188,1.067c0.107,1.096,0.166,2.206,0.102,3.312c-1.028,0.078-2.333-0.268-2.825,0.945
	c-0.419-0.521-0.843-1.042-1.266-1.544c-0.619,1.456-1.271,3.103-0.526,4.651c-2.343-0.75-4.778-0.088-7.111,0.36
	c-0.19,0.609-0.38,1.227-0.56,1.856c0.195,3.765,0.244,7.564,0.068,11.344c0.307,1.193,0.131,2.43,0.053,3.648
	c0.253,1.208,0.112,2.445-0.122,3.648c0.097,0.209,0.297,0.628,0.395,0.838c-0.125,2.49,0.34,42.5,0.205,43.295
	c-1.154-0.127-2.309-0.253-3.463-0.38c-0.351-0.492-0.706-0.979-1.062-1.456c-0.458,0.312-0.916,0.628-1.374,0.95
	c0.054-1.086,0.097-2.167,0.141-3.244c-5.533,0.205-11.076,0.356-16.614,0.209c-1.5-1.315-3.731-0.575-5.533-0.599
	c-1.13-0.078-1.057,1.359-1.101,2.143c0.058,4.612,0.097,9.23,0.073,13.847c-0.307-0.375-0.619-0.75-0.925-1.115
	c-1.943,2.523-0.877,5.767-1.003,8.679c-3.502-0.088-7.004-0.015-10.501-0.078c-0.034-1.729-0.112-3.448-0.209-5.168
	c-1.909-0.088-4.31,0.731-5.684-1.037c-1.13-0.132-2.202,0.156-2.981,1.018c-1.861-1.149-3.843,0.248-5.475,1.159
	c-2.448-0.67-1.15-1.365-4.968,0.667c0.385,0.336,0.458,0.731,0.214,1.188c0.18,0.838,0.302,1.685,0.375,2.557
	c-5.689-0.17-11.378-0.117-17.062,0.156v30.739h2560V500.52C2559.153,500.515,2558.329,500.515,2557.545,500.52z M584.986,216.012
	c0.638,0.438-0.073,1.637-0.755,1.223C583.705,216.772,584.329,215.715,584.986,216.012z M500.973,412.454
	c-1.388,2.423-0.104,6.6-0.692,11.154c1.003,0.258,0.765,1.237,0.726,2.012c-0.385,0.716-0.672,1.471-0.93,2.241
	c0.76,0.161,1.515,0.302,2.289,0.463c-0.195,0.828-0.312,1.71-0.799,2.43c-0.346-0.745-0.088-2.065-1.179-2.119v1.904
	c-1.88-0.219-3.575-1.096-5.285-1.831c-0.078-0.862-0.283-1.69-0.667-2.455c0.234-0.019,0.701-0.054,0.935-0.073
	c-0.312-1.227-0.609-2.45-0.896-3.677c0.229-0.136,0.692-0.419,0.925-0.555c0.044-1.154-0.808-1.977-1.047-2.991
	c0.239-0.161,0.716-0.477,0.955-0.633c-0.278-1.106-0.555-2.206-0.916-3.278c0.253-0.088,0.75-0.263,1.003-0.351
	c-0.37-1.096-0.628-2.216-0.877-3.331c0.209-0.054,0.633-0.156,0.843-0.205c-0.492-1.184-1.096-2.557-0.166-3.702
	c-0.204-0.862-0.365-1.739-0.473-2.606c-0.239,0.146-0.721,0.448-0.959,0.594c-0.565-1.149,1.008-1.208,1.651-1.617
	c-0.273-0.852-0.604-1.71-1.544-1.992c-0.886-1.115,0.624-1.266,1.374-1.51c-0.234-0.838-0.38-1.71-0.409-2.567
	c-1.221,1.221-1.055,0.521-1.266-0.507c0.619-0.209,1.266-0.39,1.817-0.76c-0.171-0.395-0.516-1.179-0.692-1.573
	c-0.195,0.034-0.584,0.097-0.779,0.127c-0.078-0.375-0.234-1.13-0.312-1.51c0.55-0.141,1.101-0.278,1.661-0.409
	c-0.395-1.344-0.429-2.747-0.093-4.101c-0.171-0.526-0.336-1.047-0.492-1.563c-0.229,0.122-0.682,0.37-0.906,0.492
	c-0.024-0.419-0.073-1.247-0.093-1.666c0.546-0.156,1.101-0.307,1.661-0.453c-0.438-0.536-0.619-1.193-0.609-1.865
	c-0.234,0.112-0.696,0.336-0.925,0.448c-0.19-0.755-0.132-1.466,0.175-2.133c0.175,0.117,0.531,0.351,0.711,0.472
	c0.112-0.283,0.346-0.843,0.463-1.125c-0.234-0.711-0.253-1.7-1.252-1.534c0.034-0.429,0.102-1.286,0.136-1.714
	c0.799,0.336,1.573,0.75,2.328,1.203c0.414-0.185,0.833-0.36,1.261-0.536c0.614,0.891,1.559,1.447,2.45,2.036
	c-0.073,0.75-0.122,1.52,0.224,2.231c-0.341,3.288,0.141,6.6-0.17,9.902c0.282,1.451,0.209,2.922-0.083,4.374
	c0.701,0.166,1.398,0.326,2.109,0.502c-0.063,0.282-0.2,0.847-0.263,1.13c-0.399-0.019-1.198-0.068-1.593-0.093
	c-0.078,0.58-0.146,1.164-0.2,1.758c0.507,1.271,0.2,2.625-0.049,3.921c0.57,0.248,2.099,0.653,1.169,1.505
	c-0.219,0.073-0.657,0.224-0.877,0.297c-0.141,0.604-0.273,1.218-0.399,1.841c0.804,0.258,1.617,0.497,2.435,0.745
	c-0.312,0.848-1.223,0.901-1.963,1.076c-0.078,0.667-0.151,1.344-0.219,2.021C500.393,412.338,500.778,412.416,500.973,412.454z
	 M522.155,373.222c-0.58,0.2-1.149,0.414-1.714,0.638c-1.812-0.536-2.153-2.45-2.64-4.013c-1.607,0.39-3.56,1.125-4.067,2.879
	c-0.872,0.287-1.749,0.584-2.596,0.93c-2.759-1.696,0.346-0.385-6.77-0.833c-0.58,0.779-1.471,1.101-2.411,1.033
	c-0.399,0.808-0.214,1.973-0.799,2.606c-1.875,0.268-3.721,1.398-5.64,0.76c-0.692-0.643-1.184-1.466-1.734-2.211
	c0.531-0.141,1.067-0.282,1.607-0.409c-0.57-1.11-1.018-2.279-1.408-3.453c1.422,0.063,2.869,0.541,4.296,0.18
	c0.01-0.667,0.029-1.325,0.054-1.982c-1.057,0.024-2.109,0.024-3.151-0.024c0.424-0.643,0.881-1.257,1.344-1.87
	c-1.037-0.891-2.172-1.875-2.81-3.049c0.37-1.646,0.687-3.322-0.19-4.885c0.263-3.414-0.487-6.887,0.297-10.262
	c2.694-0.347,21.932,0.987,22.941,1.086c0.599,0.609,1.14,1.344,1.953,1.705c0.575-0.419,1.071-0.925,1.627-1.378
	c0.326,1.169,0.273,3.103,2.026,2.805C522.25,353.702,522.158,372.96,522.155,373.222z"/>
<path d="M1362.489,245.076C1362.635,245.285,1362.635,245.285,1362.489,245.076"/>
</svg>
